<svg
  id="Layer_1"
  data-name="Layer 1"
  xmlns="http://www.w3.org/2000/svg"
  xmlns:xlink="http://www.w3.org/1999/xlink"
  viewBox="0 0 479.72 675.74"
><defs><style
    >.cls-1{stroke:#fff;stroke-miterlimit:10;stroke-width:15px;fill:url(#linear-gradient);}.cls-2{fill:#231f20;}.cls-3{fill:#fff;}</style><linearGradient
      id="linear-gradient"
      x1="307.64"
      y1="540"
      x2="772.36"
      y2="540"
      gradientUnits="userSpaceOnUse"
    ><stop offset="0" stop-color="#00aeef" /><stop
        offset="0.15"
        stop-color="#1e9ce0"
      /><stop offset="0.48" stop-color="#6a6dba" /><stop
        offset="0.96"
        stop-color="#e4247e"
      /><stop offset="1" stop-color="#ed1e79" /></linearGradient></defs><path
    class="cls-1"
    d="M376.84,842.46c-13.25,36.34-15.65-58.38-37.07-87.14l-.63-.85c-31.4-42.68-.16-103,52.83-103h26.32c23.59,0,46.21,12.24,56.92,33.26a64.58,64.58,0,0,0,14.63,19.1q20.24,18.06,52.8,18,33.43,0,52.81-15.4t19.36-42.68q0-22.87-15.4-37.85t-37.85-24.65q-22.42-9.66-63.8-22-59.88-18.48-97.7-37t-65.14-54.56q-27.29-36.08-27.28-94.18,0-86.25,62.5-135.11T533,209.63q102.09,0,164.59,48.84a172.5,172.5,0,0,1,34.24,35.46c45.73,63.94-2.84,153-81.45,153H614.15c-22.63,0-10.23-65.55-22-84.9a59.83,59.83,0,0,0-12.58-14.67q-20.26-17.16-51.92-17.16-27.32,0-44,14.53T467,386.54q0,29.94,28.16,46.65t88,36.08Q643,489.52,680.39,508t64.69,53.68q27.27,35.22,27.28,90.66,0,52.83-26.84,95.94c-17.91,28.75-51,95.58-77.89,68.65-53.48-53.58-79.92-55.4-132.58,25.53C471.1,940.74,414.26,739.8,376.84,842.46Z"
    transform="translate(-300.14 -202.13)"
  /><circle class="cls-2" cx="327.85" cy="216.5" r="16.52" /><circle
    class="cls-3"
    cx="330.6"
    cy="222.01"
    r="6.52"
  /><circle class="cls-2" cx="365.08" cy="216.5" r="16.52" /><circle
    class="cls-3"
    cx="362.33"
    cy="222.01"
    r="6.52"
  /></svg>